<?xml version="1.0" encoding="UTF-8" standalone="no"?>
<!-- Created with Inkscape (http://www.inkscape.org/) -->

<svg
   width="100"
   height="100"
   viewBox="0 0 100 100"
   version="1.1"
   id="svg1"
   inkscape:version="1.4.3 (0d15f75042, 2025-12-25)"
   sodipodi:docname="generic-acid.svg"
   xml:space="preserve"
   xmlns:inkscape="http://www.inkscape.org/namespaces/inkscape"
   xmlns:sodipodi="http://sodipodi.sourceforge.net/DTD/sodipodi-0.dtd"
   xmlns="http://www.w3.org/2000/svg"
   xmlns:svg="http://www.w3.org/2000/svg"><sodipodi:namedview
     id="namedview1"
     pagecolor="#ffffff"
     bordercolor="#000000"
     borderopacity="0.25"
     inkscape:showpageshadow="2"
     inkscape:pageopacity="0.0"
     inkscape:pagecheckerboard="0"
     inkscape:deskcolor="#d1d1d1"
     inkscape:document-units="px"
     inkscape:zoom="3.8423628"
     inkscape:cx="64.023106"
     inkscape:cy="40.079505"
     inkscape:window-width="1440"
     inkscape:window-height="828"
     inkscape:window-x="0"
     inkscape:window-y="0"
     inkscape:window-maximized="1"
     inkscape:current-layer="layer1" /><defs
     id="defs1"><inkscape:path-effect
       effect="powerclip"
       message=""
       id="path-effect7"
       is_visible="true"
       lpeversion="1"
       inverse="true"
       flatten="false"
       hide_clip="false" /><inkscape:path-effect
       effect="powerclip"
       message=""
       id="path-effect49"
       is_visible="true"
       lpeversion="1"
       inverse="true"
       flatten="false"
       hide_clip="false" /><clipPath
       clipPathUnits="userSpaceOnUse"
       id="clipPath1"><g
         id="g7"
         style="display:none"
         transform="rotate(-29.314349,39.95827,59.515207)"><path
           id="path1"
           style="fill:#575757;fill-rule:evenodd;stroke-width:5.56452;stroke-linejoin:round;paint-order:fill markers stroke"
           d="m 39.714844,10.412109 a 16.70903,16.70903 0 0 0 -16.566406,14.523438 19.372788,19.372788 0 0 0 -4.90625,-0.630859 19.372788,19.372788 0 0 0 -19.3730474,19.373046 19.372788,19.372788 0 0 0 19.3730474,19.373047 19.372788,19.372788 0 0 0 8.072265,-1.761719 7.1437156,7.1437156 0 0 0 -0.351562,2.212891 7.1437156,7.1437156 0 0 0 7.144531,7.144531 7.1437156,7.1437156 0 0 0 7.142578,-7.144531 7.1437156,7.1437156 0 0 0 -7.142578,-7.142578 7.1437156,7.1437156 0 0 0 -0.222656,0.0039 19.372788,19.372788 0 0 0 4.730468,-12.664062 16.70903,16.70903 0 0 0 2.09961,0.130859 16.70903,16.70903 0 0 0 13.300781,-6.595703 9.0809945,9.0809945 0 0 0 5.886719,2.164063 9.0809945,9.0809945 0 0 0 9.080078,-9.080079 9.0809945,9.0809945 0 0 0 -9.080078,-9.082031 9.0809945,9.0809945 0 0 0 -3.326172,0.63086 16.70903,16.70903 0 0 0 -15.861328,-11.455079 z" /><path
           id="path2"
           style="fill:#575757;fill-rule:evenodd;stroke-width:1.93549;stroke-linejoin:round;paint-order:fill markers stroke"
           d="M 69.583588,47 A 5.8118364,5.8118364 0 0 1 63.771752,52.811836 5.8118364,5.8118364 0 0 1 57.959915,47 5.8118364,5.8118364 0 0 1 63.771752,41.188163 5.8118364,5.8118364 0 0 1 69.583588,47 Z" /><path
           id="path4"
           style="fill:#575757;fill-rule:evenodd;stroke-width:1.29033;stroke-linejoin:round;paint-order:fill markers stroke"
           d="M 48.749115,51.874558 A 3.8745576,3.8745576 0 0 1 44.874558,55.749115 3.8745576,3.8745576 0 0 1 41,51.874558 3.8745576,3.8745576 0 0 1 44.874558,48 a 3.8745576,3.8745576 0 0 1 3.874557,3.874558 z" /><path
           id="path5"
           style="fill:#575757;fill-rule:evenodd;stroke-width:1.29033;stroke-linejoin:round;paint-order:fill markers stroke"
           d="M 70.749115,59.874558 A 3.8745576,3.8745576 0 0 1 66.874558,63.749115 3.8745576,3.8745576 0 0 1 63,59.874558 3.8745576,3.8745576 0 0 1 66.874558,56 a 3.8745576,3.8745576 0 0 1 3.874557,3.874558 z" /><path
           id="path6"
           style="fill:#575757;fill-rule:evenodd;stroke-width:0.766133;stroke-linejoin:round;paint-order:fill markers stroke"
           d="m 49.663758,65.425961 a 2.3005185,2.3005185 0 0 1 -2.300518,2.300518 2.3005185,2.3005185 0 0 1 -2.300519,-2.300518 2.3005185,2.3005185 0 0 1 2.300519,-2.300519 2.3005185,2.3005185 0 0 1 2.300518,2.300519 z" /><path
           id="path7"
           style="fill:#575757;fill-rule:evenodd;stroke-width:0.766133;stroke-linejoin:round;paint-order:fill markers stroke"
           d="M 37.601037,82.300519 A 2.3005185,2.3005185 0 0 1 35.300519,84.601037 2.3005185,2.3005185 0 0 1 33,82.300519 2.3005185,2.3005185 0 0 1 35.300519,80 a 2.3005185,2.3005185 0 0 1 2.300518,2.300519 z" /></g><path
         id="lpe_path-effect7"
         style="display:block"
         class="powerclip"
         d="M 12.277317,-1.9288531 H 89.229375 V 103.0232 H 12.277317 Z M 39.714844,10.412109 a 16.70903,16.70903 0 0 0 -16.566406,14.523438 19.372788,19.372788 0 0 0 -4.90625,-0.630859 19.372788,19.372788 0 0 0 -19.3730474,19.373046 19.372788,19.372788 0 0 0 19.3730474,19.373047 19.372788,19.372788 0 0 0 8.072265,-1.761719 7.1437156,7.1437156 0 0 0 -0.351562,2.212891 7.1437156,7.1437156 0 0 0 7.144531,7.144531 7.1437156,7.1437156 0 0 0 7.142578,-7.144531 7.1437156,7.1437156 0 0 0 -7.142578,-7.142578 7.1437156,7.1437156 0 0 0 -0.222656,0.0039 19.372788,19.372788 0 0 0 4.730468,-12.664062 16.70903,16.70903 0 0 0 2.09961,0.130859 16.70903,16.70903 0 0 0 13.300781,-6.595703 9.0809945,9.0809945 0 0 0 5.886719,2.164063 9.0809945,9.0809945 0 0 0 9.080078,-9.080079 9.0809945,9.0809945 0 0 0 -9.080078,-9.082031 9.0809945,9.0809945 0 0 0 -3.326172,0.63086 A 16.70903,16.70903 0 0 0 39.714844,10.412103 Z M 69.583588,47 A 5.8118364,5.8118364 0 0 0 63.771752,41.188163 5.8118364,5.8118364 0 0 0 57.959915,47 5.8118364,5.8118364 0 0 0 63.771752,52.811836 5.8118364,5.8118364 0 0 0 69.583588,47 Z M 48.749115,51.874558 A 3.8745576,3.8745576 0 0 0 44.874558,48 3.8745576,3.8745576 0 0 0 41,51.874558 a 3.8745576,3.8745576 0 0 0 3.874558,3.874557 3.8745576,3.8745576 0 0 0 3.874557,-3.874557 z m 22,8 A 3.8745576,3.8745576 0 0 0 66.874558,56 3.8745576,3.8745576 0 0 0 63,59.874558 a 3.8745576,3.8745576 0 0 0 3.874558,3.874557 3.8745576,3.8745576 0 0 0 3.874557,-3.874557 z m -21.085357,5.551403 a 2.3005185,2.3005185 0 0 0 -2.300518,-2.300519 2.3005185,2.3005185 0 0 0 -2.300519,2.300519 2.3005185,2.3005185 0 0 0 2.300519,2.300518 2.3005185,2.3005185 0 0 0 2.300518,-2.300518 z M 37.601037,82.300519 A 2.3005185,2.3005185 0 0 0 35.300519,80 2.3005185,2.3005185 0 0 0 33,82.300519 a 2.3005185,2.3005185 0 0 0 2.300519,2.300518 2.3005185,2.3005185 0 0 0 2.300518,-2.300518 z" /></clipPath></defs><g
     inkscape:label="Layer 1"
     inkscape:groupmode="layer"
     id="layer1"><path
       id="path3"
       style="fill:#349bff;fill-opacity:1;stroke-width:5.99811;paint-order:fill markers stroke"
       d="m 84.229375,64.547175 c 0,18.4883 -14.987729,33.476029 -33.476029,33.476028 -18.488301,1e-6 -33.476029,-14.987728 -33.476029,-33.476028 1e-6,-18.4883 33.476029,-61.4760281 33.476029,-61.4760281 0,0 33.476029,42.9877271 33.476029,61.4760281 z"
       sodipodi:nodetypes="ssscs"
       clip-path="url(#clipPath1)"
       inkscape:path-effect="#path-effect7"
       inkscape:original-d="m 84.229375,64.547175 c 0,18.4883 -14.987729,33.476029 -33.476029,33.476028 -18.488301,1e-6 -33.476029,-14.987728 -33.476029,-33.476028 1e-6,-18.4883 33.476029,-61.4760281 33.476029,-61.4760281 0,0 33.476029,42.9877271 33.476029,61.4760281 z" /></g></svg>
